Coordinates
version=1
nRows=7
nColumns=69
inDegrees=yes

Units are S.I. units (second, meters, Newtons, ...)
If the header above contains a line with 'inDegrees', this indicates whether rotational values are in degrees (yes) or radians (no).

endheader
time	pelvis_tilt	pelvis_list	pelvis_rotation	pelvis_tx	pelvis_ty	pelvis_tz	hip_flexion_r	hip_adduction_r	hip_rotation_r	knee_angle_r	knee_angle_r_beta	ankle_angle_r	subtalar_angle_r	mtp_angle_r	hip_flexion_l	hip_adduction_l	hip_rotation_l	knee_angle_l	knee_angle_l_beta	ankle_angle_l	subtalar_angle_l	mtp_angle_l	L5_S1_Flex_Ext	L5_S1_Lat_Bending	L5_S1_axial_rotation	L4_L5_Flex_Ext	L4_L5_Lat_Bending	L4_L5_axial_rotation	L3_L4_Flex_Ext	L3_L4_Lat_Bending	L3_L4_axial_rotation	L2_L3_Flex_Ext	L2_L3_Lat_Bending	L2_L3_axial_rotation	L1_L2_Flex_Ext	L1_L2_Lat_Bending	L1_L2_axial_rotation	L1_T12_Flex_Ext	L1_T12_Lat_Bending	L1_T12_axial_rotation	Abs_r3	Abs_r2	Abs_r1	Abs_t1	Abs_t2	neck_flexion	neck_bending	neck_rotation	sh_tx_r	sh_ty_r	sh_tz_r	sh_plane_elev_r	sh_elev_r	sh_axial_rot_r	elbow_flex_r	pro_sup_r	wrist_flex_r	wrist_dev_r	sh_tx_l	sh_ty_l	sh_tz_l	sh_plane_elev_l	sh_elev_l	sh_axial_rot_l	elbow_flex_l	pro_sup_l	wrist_flex_l	wrist_dev_l
      1.23333330	     -7.64369546	     16.53778847	    -87.16917057	     -0.09200654	      0.92875274	     -0.85087782	     40.19910433	     11.58450788	     -3.24308157	     13.36260814	      0.23322151	    -14.91965151	     -7.94600243	      0.00000000	     18.60918983	     -6.50293996	      0.70114319	     32.75426720	      0.57166981	     12.15024263	    -18.81205902	      0.00000000	     -0.01481550	     -2.56970519	      0.42637750	     -0.02751387	     -3.41770790	      0.45302609	     -0.02434039	     -6.24798120	      0.45302609	     -0.01693264	     -6.24798120	      0.37308031	     -0.01375767	     -5.24014282	      0.34643172	     -0.00846558	     -3.98047334	      0.31978312	     -0.10582565	    -29.06901904	      2.37138374	      0.00000000	      0.00000000	      0.00000000	      0.00000000	      0.00000000	      0.00896981	     -0.01890966	     -0.00167564	    -18.12197613	     27.65840537	    -19.40576350	    120.90112971	     89.99559364	      0.00000000	      0.00000000	      0.00495244	     -0.01848682	     -0.00132598	     -3.45371793	     46.92501714	     -7.28396987	     46.76411120	     89.99559364	      0.00000000	      0.00000000
      1.25000000	     -6.55339817	     16.13518517	    -86.65896167	     -0.08476767	      0.92458218	     -0.84392232	     39.56009931	     10.98551085	     -3.72976051	     14.69545277	      0.25648404	    -16.36718448	    -12.41427080	      0.00000000	     18.06516425	     -4.78723161	      0.86860535	     33.75332884	      0.58910672	     12.66592738	    -18.50472262	      0.00000000	     -0.01159742	     -2.42013879	      0.44469299	     -0.02153758	     -3.21878460	      0.47248630	     -0.01905341	     -5.88432546	      0.47248630	     -0.01325470	     -5.88432546	      0.38910636	     -0.01076937	     -4.93514703	      0.36131305	     -0.00662677	     -3.74879499	      0.33351974	     -0.08283924	    -27.37709406	      2.47324898	      0.00000000	      0.00000000	      0.00000000	      0.00000000	      0.00000000	      0.00720758	     -0.01890480	     -0.00164626	    -18.22900908	     28.26965852	    -19.11232534	    119.40242256	     89.99559364	      0.00000000	      0.00000000	      0.00300427	     -0.01854846	     -0.00134432	     -3.96880272	     45.38822929	     -7.03629349	     46.97703293	     89.99559364	      0.00000000	      0.00000000
      1.26666670	     -5.70163398	     15.89067122	    -85.80525912	     -0.07696285	      0.91978491	     -0.83847896	     39.61750280	     10.10006491	     -4.89958038	     16.98210503	      0.29639365	    -16.63763282	    -16.06072037	      0.00000000	     18.09548145	     -3.26785885	      1.25716216	     35.33660914	      0.61674018	     13.73687558	    -18.22091608	      0.00000000	     -0.00965636	     -2.22731801	      0.42236639	     -0.01793283	     -2.96233295	      0.44876428	     -0.01586444	     -5.41550100	      0.44876428	     -0.01103626	     -5.41550100	      0.36957059	     -0.00896690	     -4.54194688	      0.34317269	     -0.00551764	     -3.45011559	      0.31677479	     -0.06897442	    -25.19586677	      2.34907513	      0.00000000	      0.00000000	      0.00000000	      0.00000000	      0.00000000	      0.00483176	     -0.01886963	     -0.00165123	    -18.30513907	     29.25067627	    -19.17782205	    117.84646194	     89.99559364	      0.00000000	      0.00000000	      0.00138601	     -0.01857929	     -0.00138903	     -4.46799513	     43.89671751	     -7.02938118	     47.53667121	     89.99559364	      0.00000000	      0.00000000
      1.28333330	     -5.04248853	     15.81569934	    -84.72365818	     -0.06863066	      0.91474401	     -0.83337872	     40.29642198	      8.89214391	     -6.53831255	     20.07278184	      0.35033613	    -15.33143300	    -18.08480818	      0.00000000	     18.62955021	     -1.88218045	      1.82373071	     37.40297095	      0.65280499	     15.18535883	    -17.95877548	      0.00000000	     -0.00758296	     -1.99899217	      0.39346704	     -0.01408231	     -2.65865958	      0.41805873	     -0.01245804	     -4.86034955	      0.41805873	     -0.00866656	     -4.86034955	      0.34428366	     -0.00704153	     -4.07634482	      0.31969197	     -0.00433290	     -3.09643886	      0.29510028	     -0.05416431	    -22.61299917	      2.18834563	      0.00000000	      0.00000000	      0.00000000	      0.00000000	      0.00000000	      0.00194823	     -0.01880826	     -0.00165193	    -18.64862473	     30.48807623	    -19.59113111	    116.55528372	     89.99559364	      0.00000000	      0.00000000	     -0.00043863	     -0.01858846	     -0.00144586	     -4.71489843	     42.62194003	     -7.26496171	     48.46382746	     89.99559364	      0.00000000	      0.00000000
      1.30000000	     -4.52758659	     15.79252046	    -83.60973999	     -0.05984445	      0.91023947	     -0.82678262	     41.24975857	      7.47652820	     -8.05397977	     23.61167918	      0.41210154	    -12.75811616	    -18.86230754	      0.00000000	     19.38036741	     -0.62670442	      2.43548698	     39.80441455	      0.69471809	     16.90979664	    -17.61919071	      0.00000000	     -0.00662308	     -1.74446384	      0.36894493	     -0.01229972	     -2.32013691	      0.39200399	     -0.01088106	     -4.24148938	      0.39200399	     -0.00756952	     -4.24148938	      0.32282681	     -0.00615019	     -3.55731066	      0.29976775	     -0.00378443	     -2.70217449	      0.27670870	     -0.04730799	    -19.73372385	      2.05196101	      0.00000000	      0.00000000	      0.00000000	      0.00000000	      0.00000000	     -0.00129721	     -0.01870906	     -0.00167352	    -19.05926454	     31.97273544	    -20.16407486	    115.44044087	     89.99559364	      0.00000000	      0.00000000	     -0.00234164	     -0.01857034	     -0.00152632	     -5.06176754	     41.65829099	     -7.82238010	     49.81879136	     89.99559364	      0.00000000	      0.00000000
      1.31666670	     -4.14649982	     15.68575212	    -82.76167102	     -0.05080016	      0.90702506	     -0.81725998	     42.03825894	      6.13786296	     -8.98170223	     27.09960845	      0.47297739	     -9.84545806	    -19.16684097	      0.00000000	     20.03599542	      0.38502084	      2.81931861	     42.41936499	      0.74035759	     18.94858977	    -16.85789246	      0.00000000	     -0.00564836	     -1.46893108	      0.36333097	     -0.01048958	     -1.95367834	      0.38603915	     -0.00927970	     -3.57155903	      0.38603915	     -0.00645552	     -3.57155903	      0.31791460	     -0.00524507	     -2.99544426	      0.29520641	     -0.00322748	     -2.27537425	      0.27249822	     -0.04034570	    -16.61684219	      2.02073783	      0.00000000	      0.00000000	      0.00000000	      0.00000000	      0.00000000	     -0.00429836	     -0.01859338	     -0.00170476	    -19.43657241	     33.48017815	    -20.82206187	    114.36291598	     89.99559364	      0.00000000	      0.00000000	     -0.00395542	     -0.01850056	     -0.00160961	     -6.10030280	     40.94289274	     -8.83715920	     51.59532339	     89.99559364	      0.00000000	      0.00000000
      1.33333330	     -3.75889868	     15.42461580	    -82.43039366	     -0.04204263	      0.90541363	     -0.80516538	     42.43935264	      4.99469742	     -9.19456869	     30.31597036	      0.52911350	     -6.82584947	    -19.31517430	      0.00000000	     20.39569504	      1.17752836	      2.80983431	     45.10391053	      0.78721174	     21.17025629	    -15.38852450	      0.00000000	     -0.00420309	     -1.19012763	      0.34616677	     -0.00780555	     -1.58286974	      0.36780219	     -0.00690525	     -2.89367631	      0.36780219	     -0.00480371	     -2.89367631	      0.30289592	     -0.00390299	     -2.42690826	      0.28126050	     -0.00240164	     -1.84350769	      0.25962508	     -0.03002223	    -13.46296174	      1.92527571	      0.00000000	      0.00000000	      0.00000000	      0.00000000	      0.00000000	     -0.00551975	     -0.01845435	     -0.00175709	    -19.41826882	     35.05069568	    -21.12593505	    113.26291883	     89.99559364	      0.00000000	      0.00000000	     -0.00672095	     -0.01840549	     -0.00171395	     -8.05248759	     40.77866114	     -9.71020801	     53.42532813	     89.99559364	      0.00000000	      0.00000000
